<mxfile host="65bd71144e">
    <diagram id="PrcSIllAEB2MyMtEZ8Ye" name="Page-1">
        <mxGraphModel dx="1280" dy="940" grid="1" gridSize="10" guides="1" tooltips="1" connect="1" arrows="1" fold="1" page="1" pageScale="1" pageWidth="1100" pageHeight="850" math="0" shadow="0">
            <root>
                <mxCell id="0"/>
                <mxCell id="1" parent="0"/>
                <mxCell id="21" value="Serie" style="swimlane;fontStyle=0;align=center;verticalAlign=top;childLayout=stackLayout;horizontal=1;startSize=40;horizontalStack=0;resizeParent=1;resizeParentMax=0;resizeLast=0;collapsible=0;marginBottom=0;html=1;whiteSpace=wrap;fontSize=13;" parent="1" vertex="1">
                    <mxGeometry x="10" y="120" width="140" height="100" as="geometry"/>
                </mxCell>
                <mxCell id="23" value="titre&lt;div&gt;&lt;font color=&quot;#000000&quot;&gt;synopsis&lt;/font&gt;&lt;/div&gt;&lt;div&gt;&lt;div&gt;&lt;div&gt;&lt;span style=&quot;background-color: transparent;&quot;&gt;&lt;u&gt;idSerie&lt;/u&gt;&lt;/span&gt;&lt;/div&gt;&lt;/div&gt;&lt;/div&gt;" style="text;html=1;align=center;verticalAlign=middle;resizable=0;points=[];autosize=1;strokeColor=none;fillColor=none;fontSize=13;" parent="21" vertex="1">
                    <mxGeometry y="40" width="140" height="60" as="geometry"/>
                </mxCell>
                <mxCell id="30" value="Saison" style="swimlane;fontStyle=0;align=center;verticalAlign=top;childLayout=stackLayout;horizontal=1;startSize=40;horizontalStack=0;resizeParent=1;resizeParentMax=0;resizeLast=0;collapsible=0;marginBottom=0;html=1;whiteSpace=wrap;fontSize=13;" parent="1" vertex="1">
                    <mxGeometry x="290" y="130" width="140" height="120" as="geometry"/>
                </mxCell>
                <mxCell id="31" value="&lt;div&gt;numero&lt;/div&gt;&lt;div&gt;titre&lt;/div&gt;&lt;div&gt;&lt;u&gt;idSaison&lt;/u&gt;&lt;/div&gt;&lt;div&gt;#idSerie&lt;/div&gt;" style="text;html=1;align=center;verticalAlign=middle;resizable=0;points=[];autosize=1;strokeColor=none;fillColor=none;fontSize=13;" parent="30" vertex="1">
                    <mxGeometry y="40" width="140" height="80" as="geometry"/>
                </mxCell>
                <mxCell id="40" value="Episode" style="swimlane;fontStyle=0;align=center;verticalAlign=top;childLayout=stackLayout;horizontal=1;startSize=40;horizontalStack=0;resizeParent=1;resizeParentMax=0;resizeLast=0;collapsible=0;marginBottom=0;html=1;whiteSpace=wrap;fontSize=13;" parent="1" vertex="1">
                    <mxGeometry x="290" y="330" width="140" height="160" as="geometry"/>
                </mxCell>
                <mxCell id="41" value="&lt;div&gt;numero&lt;/div&gt;titre&lt;div&gt;&lt;span style=&quot;background-color: transparent;&quot;&gt;#idRealisateur&lt;/span&gt;&lt;/div&gt;&lt;div&gt;&lt;span style=&quot;background-color: transparent;&quot;&gt;#idSaison&lt;/span&gt;&lt;/div&gt;&lt;div&gt;&lt;span style=&quot;background-color: transparent;&quot;&gt;synopsis&lt;/span&gt;&lt;/div&gt;&lt;div&gt;duree&lt;/div&gt;&lt;div&gt;&lt;u&gt;idEpisode&lt;/u&gt;&lt;/div&gt;" style="text;html=1;align=center;verticalAlign=middle;resizable=0;points=[];autosize=1;strokeColor=none;fillColor=none;fontSize=13;" parent="40" vertex="1">
                    <mxGeometry y="40" width="140" height="120" as="geometry"/>
                </mxCell>
                <mxCell id="42" value="Acteur" style="swimlane;fontStyle=0;align=center;verticalAlign=top;childLayout=stackLayout;horizontal=1;startSize=40;horizontalStack=0;resizeParent=1;resizeParentMax=0;resizeLast=0;collapsible=0;marginBottom=0;html=1;whiteSpace=wrap;fontSize=13;" parent="1" vertex="1">
                    <mxGeometry x="680" y="120" width="140" height="110" as="geometry"/>
                </mxCell>
                <mxCell id="43" value="nom&lt;div&gt;photo&lt;/div&gt;&lt;div&gt;&lt;u style=&quot;background-color: transparent;&quot;&gt;idActeur&lt;/u&gt;&lt;/div&gt;" style="text;html=1;strokeColor=none;fillColor=none;align=left;verticalAlign=middle;spacingLeft=4;spacingRight=4;overflow=hidden;rotatable=0;points=[[0,0.5],[1,0.5]];portConstraint=eastwest;whiteSpace=wrap;fontSize=13;" parent="42" vertex="1">
                    <mxGeometry y="40" width="140" height="70" as="geometry"/>
                </mxCell>
                <mxCell id="44" value="Realisateur" style="swimlane;fontStyle=0;align=center;verticalAlign=top;childLayout=stackLayout;horizontal=1;startSize=40;horizontalStack=0;resizeParent=1;resizeParentMax=0;resizeLast=0;collapsible=0;marginBottom=0;html=1;whiteSpace=wrap;fontSize=13;" parent="1" vertex="1">
                    <mxGeometry x="520" y="355" width="140" height="110" as="geometry"/>
                </mxCell>
                <mxCell id="45" value="nom&lt;div&gt;photo&lt;/div&gt;&lt;div&gt;&lt;u&gt;idRealisateur&lt;/u&gt;&lt;/div&gt;" style="text;html=1;strokeColor=none;fillColor=none;align=left;verticalAlign=middle;spacingLeft=4;spacingRight=4;overflow=hidden;rotatable=0;points=[[0,0.5],[1,0.5]];portConstraint=eastwest;whiteSpace=wrap;fontSize=13;" parent="44" vertex="1">
                    <mxGeometry y="40" width="140" height="70" as="geometry"/>
                </mxCell>
                <mxCell id="51" value="Tag" style="swimlane;fontStyle=0;align=center;verticalAlign=top;childLayout=stackLayout;horizontal=1;startSize=40;horizontalStack=0;resizeParent=1;resizeParentMax=0;resizeLast=0;collapsible=0;marginBottom=0;html=1;whiteSpace=wrap;fontSize=13;" parent="1" vertex="1">
                    <mxGeometry x="10" y="425" width="140" height="70" as="geometry"/>
                </mxCell>
                <mxCell id="52" value="&lt;u&gt;idTag&lt;/u&gt;&lt;div&gt;nom&lt;/div&gt;" style="text;html=1;strokeColor=none;fillColor=none;align=left;verticalAlign=middle;spacingLeft=4;spacingRight=4;overflow=hidden;rotatable=0;points=[[0,0.5],[1,0.5]];portConstraint=eastwest;whiteSpace=wrap;fontSize=13;" parent="51" vertex="1">
                    <mxGeometry y="40" width="140" height="30" as="geometry"/>
                </mxCell>
                <mxCell id="53" value="TagsDeSerie" style="swimlane;fontStyle=0;align=center;verticalAlign=top;childLayout=stackLayout;horizontal=1;startSize=40;horizontalStack=0;resizeParent=1;resizeParentMax=0;resizeLast=0;collapsible=0;marginBottom=0;html=1;whiteSpace=wrap;fontSize=13;" parent="1" vertex="1">
                    <mxGeometry x="10" y="280" width="140" height="90" as="geometry"/>
                </mxCell>
                <mxCell id="54" value="&lt;u&gt;#idTag&lt;/u&gt;&lt;div&gt;&lt;u&gt;#idSerie&lt;/u&gt;&lt;/div&gt;" style="text;html=1;strokeColor=none;fillColor=none;align=left;verticalAlign=middle;spacingLeft=4;spacingRight=4;overflow=hidden;rotatable=0;points=[[0,0.5],[1,0.5]];portConstraint=eastwest;whiteSpace=wrap;fontSize=13;" parent="53" vertex="1">
                    <mxGeometry y="40" width="140" height="50" as="geometry"/>
                </mxCell>
                <mxCell id="55" value="ActeurDeSaison" style="swimlane;fontStyle=0;align=center;verticalAlign=top;childLayout=stackLayout;horizontal=1;startSize=40;horizontalStack=0;resizeParent=1;resizeParentMax=0;resizeLast=0;collapsible=0;marginBottom=0;html=1;whiteSpace=wrap;fontSize=13;" parent="1" vertex="1">
                    <mxGeometry x="490" y="125" width="140" height="100" as="geometry"/>
                </mxCell>
                <mxCell id="56" value="&lt;u&gt;#idActeur&lt;/u&gt;&lt;div&gt;&lt;u&gt;#idSaison&lt;/u&gt;&lt;/div&gt;" style="text;html=1;strokeColor=none;fillColor=none;align=left;verticalAlign=middle;spacingLeft=4;spacingRight=4;overflow=hidden;rotatable=0;points=[[0,0.5],[1,0.5]];portConstraint=eastwest;whiteSpace=wrap;fontSize=13;" parent="55" vertex="1">
                    <mxGeometry y="40" width="140" height="60" as="geometry"/>
                </mxCell>
                <mxCell id="58" value="" style="endArrow=none;startArrow=none;endFill=0;startFill=0;endSize=8;html=1;verticalAlign=bottom;labelBackgroundColor=none;strokeWidth=3;entryX=-0.001;entryY=0.288;entryDx=0;entryDy=0;entryPerimeter=0;fontSize=13;" edge="1" parent="1" target="31">
                    <mxGeometry width="160" relative="1" as="geometry">
                        <mxPoint x="150" y="189" as="sourcePoint"/>
                        <mxPoint x="300" y="189.47" as="targetPoint"/>
                        <Array as="points">
                            <mxPoint x="220" y="189.47"/>
                        </Array>
                    </mxGeometry>
                </mxCell>
                <mxCell id="59" value="" style="endArrow=none;startArrow=none;endFill=0;startFill=0;endSize=8;html=1;verticalAlign=bottom;labelBackgroundColor=none;strokeWidth=3;exitX=0.495;exitY=1.025;exitDx=0;exitDy=0;exitPerimeter=0;entryX=0.5;entryY=0;entryDx=0;entryDy=0;fontSize=13;" edge="1" parent="1" source="23" target="53">
                    <mxGeometry width="160" relative="1" as="geometry">
                        <mxPoint x="30" y="260" as="sourcePoint"/>
                        <mxPoint x="190" y="260" as="targetPoint"/>
                    </mxGeometry>
                </mxCell>
                <mxCell id="60" value="" style="endArrow=none;startArrow=none;endFill=0;startFill=0;endSize=8;html=1;verticalAlign=bottom;labelBackgroundColor=none;strokeWidth=3;exitX=0.495;exitY=1.025;exitDx=0;exitDy=0;exitPerimeter=0;entryX=0.5;entryY=0;entryDx=0;entryDy=0;fontSize=13;" edge="1" parent="1" target="51">
                    <mxGeometry width="160" relative="1" as="geometry">
                        <mxPoint x="79.47" y="370" as="sourcePoint"/>
                        <mxPoint x="80.47" y="418" as="targetPoint"/>
                    </mxGeometry>
                </mxCell>
                <mxCell id="61" value="" style="endArrow=none;startArrow=none;endFill=0;startFill=0;endSize=8;html=1;verticalAlign=bottom;labelBackgroundColor=none;strokeWidth=3;exitX=0.503;exitY=1;exitDx=0;exitDy=0;exitPerimeter=0;entryX=0.5;entryY=0;entryDx=0;entryDy=0;fontSize=13;" edge="1" parent="1" source="31" target="40">
                    <mxGeometry width="160" relative="1" as="geometry">
                        <mxPoint x="359.47" y="270" as="sourcePoint"/>
                        <mxPoint x="360.47" y="318" as="targetPoint"/>
                    </mxGeometry>
                </mxCell>
                <mxCell id="62" value="" style="endArrow=none;startArrow=none;endFill=0;startFill=0;endSize=8;html=1;verticalAlign=bottom;labelBackgroundColor=none;strokeWidth=3;exitX=1.01;exitY=0.313;exitDx=0;exitDy=0;exitPerimeter=0;entryX=0;entryY=0.5;entryDx=0;entryDy=0;fontSize=13;" edge="1" parent="1" source="31" target="56">
                    <mxGeometry width="160" relative="1" as="geometry">
                        <mxPoint x="430" y="182" as="sourcePoint"/>
                        <mxPoint x="431" y="230" as="targetPoint"/>
                    </mxGeometry>
                </mxCell>
                <mxCell id="63" value="" style="endArrow=none;startArrow=none;endFill=0;startFill=0;endSize=8;html=1;verticalAlign=bottom;labelBackgroundColor=none;strokeWidth=3;exitX=1;exitY=0.5;exitDx=0;exitDy=0;entryX=0;entryY=0.5;entryDx=0;entryDy=0;fontSize=13;" edge="1" parent="1" source="56" target="43">
                    <mxGeometry width="160" relative="1" as="geometry">
                        <mxPoint x="649.47" y="151" as="sourcePoint"/>
                        <mxPoint x="650.47" y="199" as="targetPoint"/>
                    </mxGeometry>
                </mxCell>
                <mxCell id="64" value="" style="endArrow=none;startArrow=none;endFill=0;startFill=0;endSize=8;html=1;verticalAlign=bottom;labelBackgroundColor=none;strokeWidth=3;entryX=0;entryY=0.5;entryDx=0;entryDy=0;fontSize=13;" edge="1" parent="1" target="45">
                    <mxGeometry width="160" relative="1" as="geometry">
                        <mxPoint x="430" y="422" as="sourcePoint"/>
                        <mxPoint x="500" y="380" as="targetPoint"/>
                    </mxGeometry>
                </mxCell>
                <mxCell id="65" value="&lt;h1&gt;&lt;u&gt;Schéma de base de donnée &quot;LettreBoited&quot;&lt;/u&gt;&lt;/h1&gt;" style="text;html=1;align=center;verticalAlign=middle;whiteSpace=wrap;rounded=0;" vertex="1" parent="1">
                    <mxGeometry x="40" y="40" width="260" height="30" as="geometry"/>
                </mxCell>
                <mxCell id="66" value="- clé primaire : &lt;u&gt;attribut&lt;/u&gt;&lt;div&gt;-clé étrangère :&amp;nbsp; #attribut&lt;/div&gt;" style="text;html=1;align=center;verticalAlign=middle;whiteSpace=wrap;rounded=0;" vertex="1" parent="1">
                    <mxGeometry x="390" y="20" width="200" height="50" as="geometry"/>
                </mxCell>
            </root>
        </mxGraphModel>
    </diagram>
</mxfile>